<svg width="756" height="756" xmlns="http://www.w3.org/2000/svg" xmlns:xlink="http://www.w3.org/1999/xlink" overflow="hidden"><defs><clipPath id="clip0"><rect x="0" y="0" width="756" height="756"/></clipPath></defs><g clip-path="url(#clip0)"><rect x="0" y="0" width="756" height="756" fill="#E5FFED" fill-opacity="0"/><path d="M630.517 199.996C629.96 199.992 629.396 199.988 628.842 199.97L628.859 199.412C629.407 199.429 629.968 199.437 630.517 199.437 631.069 199.437 631.631 199.428 632.189 199.41L632.207 199.968C631.643 199.987 631.074 199.996 630.517 199.996ZM625.485 199.76C624.373 199.654 623.25 199.512 622.148 199.336L622.236 198.784C623.326 198.958 624.437 199.1 625.538 199.204ZM635.564 199.754 635.511 199.198C636.61 199.093 637.721 198.95 638.812 198.774L638.901 199.326C637.798 199.503 636.675 199.647 635.564 199.754ZM618.844 198.699C617.756 198.452 616.66 198.166 615.589 197.849L615.747 197.313C616.807 197.627 617.891 197.909 618.968 198.153ZM642.204 198.685 642.079 198.14C643.159 197.894 644.242 197.61 645.299 197.296L645.458 197.832C644.39 198.149 643.295 198.436 642.203 198.685ZM612.394 196.792C611.344 196.406 610.293 195.981 609.27 195.528L609.496 195.018C610.508 195.465 611.547 195.886 612.587 196.267ZM648.651 196.77 648.458 196.246C649.491 195.865 650.527 195.445 651.537 194.996L651.764 195.507C650.742 195.96 649.695 196.385 648.651 196.77ZM606.235 194.066C605.247 193.55 604.26 192.994 603.302 192.413L603.591 191.935C604.539 192.51 605.516 193.06 606.494 193.571ZM654.79 194.046 654.532 193.551C655.508 193.04 656.482 192.49 657.427 191.915L657.718 192.393C656.762 192.974 655.777 193.53 654.79 194.046ZM600.48 190.575C599.565 189.936 598.657 189.258 597.783 188.561L598.131 188.124C598.996 188.814 599.894 189.484 600.8 190.117ZM660.534 190.555 660.214 190.097C661.12 189.464 662.016 188.794 662.879 188.104L663.228 188.541C662.356 189.238 661.449 189.915 660.534 190.555ZM595.22 186.378C594.392 185.627 593.579 184.839 592.802 184.038L593.203 183.649C593.971 184.442 594.777 185.221 595.596 185.965ZM665.788 186.359 665.413 185.945C666.23 185.203 667.034 184.423 667.804 183.629L668.205 184.017C667.427 184.821 666.614 185.608 665.788 186.359ZM590.538 181.549C589.813 180.699 589.106 179.815 588.437 178.922L588.884 178.587C589.546 179.471 590.245 180.346 590.962 181.186ZM670.468 181.526 670.043 181.164C670.76 180.323 671.46 179.447 672.121 178.561L672.569 178.895C671.9 179.79 671.193 180.676 670.468 181.526ZM586.509 176.166C585.898 175.23 585.31 174.263 584.761 173.293L585.247 173.018C585.79 173.978 586.372 174.934 586.977 175.86ZM674.497 176.135 674.03 175.83C674.634 174.903 675.216 173.945 675.759 172.983L676.246 173.257C675.697 174.23 675.109 175.198 674.497 176.135ZM583.202 170.315C582.716 169.31 582.257 168.276 581.837 167.243L582.355 167.033C582.77 168.055 583.224 169.077 583.705 170.072ZM677.806 170.271 677.303 170.029C677.784 169.032 678.238 168.007 678.653 166.981L679.171 167.191C678.751 168.228 678.292 169.265 677.806 170.271ZM580.671 164.087C580.318 163.026 579.995 161.94 579.712 160.861L580.252 160.719C580.533 161.787 580.852 162.861 581.201 163.91ZM680.335 164.028 679.805 163.852C680.152 162.804 680.47 161.729 680.75 160.659L681.29 160.801C681.008 161.882 680.686 162.968 680.335 164.028ZM578.963 157.58C578.749 156.484 578.569 155.367 578.426 154.258L578.98 154.187C579.121 155.284 579.3 156.389 579.511 157.473ZM682.035 157.519 681.487 157.413C681.697 156.329 681.874 155.223 682.014 154.126L682.568 154.196C682.427 155.306 682.247 156.423 682.035 157.519ZM578.103 150.909C578.032 149.796 577.995 148.664 577.993 147.546L578.552 147.545C578.553 148.652 578.59 149.771 578.661 150.873ZM682.888 150.847 682.33 150.811C682.4 149.711 682.435 148.591 682.435 147.484L682.435 147.362 682.993 147.362 682.993 147.482C682.993 148.603 682.958 149.734 682.888 150.847ZM578.653 144.217 578.095 144.183C578.165 143.067 578.271 141.94 578.41 140.833L578.965 140.903C578.826 141.998 578.721 143.114 578.653 144.217ZM682.323 144.034C682.25 142.93 682.141 141.815 681.999 140.72L682.553 140.648C682.696 141.755 682.807 142.881 682.88 143.997ZM579.488 137.615 578.939 137.509C579.15 136.413 579.399 135.309 579.681 134.227L580.221 134.368C579.943 135.438 579.696 136.53 579.488 137.615ZM681.464 137.435C681.251 136.349 681 135.258 680.719 134.19L681.259 134.048C681.543 135.127 681.797 136.23 682.012 137.327ZM581.163 131.174 580.632 130.999C580.983 129.938 581.373 128.873 581.792 127.834L582.31 128.044C581.896 129.071 581.509 130.124 581.163 131.174ZM679.766 131C679.415 129.952 679.026 128.901 678.61 127.878L679.126 127.667C679.548 128.701 679.942 129.763 680.296 130.823ZM583.657 124.994 583.154 124.752C583.638 123.744 584.162 122.739 584.711 121.765L585.198 122.039C584.655 123.003 584.137 123.997 583.657 124.994ZM677.256 124.842C676.775 123.85 676.255 122.859 675.709 121.897L676.195 121.622C676.747 122.594 677.272 123.595 677.758 124.598ZM586.924 119.188 586.456 118.884C587.065 117.947 587.713 117.018 588.381 116.121L588.829 116.455C588.167 117.342 587.526 118.262 586.924 119.188ZM673.977 119.057C673.373 118.134 672.73 117.217 672.066 116.333L672.513 115.997C673.184 116.892 673.833 117.818 674.444 118.751ZM590.904 113.85 590.479 113.489C591.202 112.637 591.962 111.798 592.739 110.995L593.14 111.383C592.372 112.178 591.62 113.008 590.904 113.85ZM669.985 113.735C669.267 112.895 668.512 112.068 667.742 111.275L668.142 110.886C668.921 111.687 669.683 112.523 670.409 113.372ZM595.529 109.063 595.153 108.651C595.979 107.897 596.84 107.162 597.711 106.465L598.06 106.901C597.198 107.591 596.347 108.318 595.529 109.063ZM665.346 108.962C664.527 108.221 663.673 107.495 662.808 106.806L663.156 106.369C664.03 107.066 664.893 107.799 665.721 108.548ZM600.723 104.905 600.402 104.448C601.316 103.807 602.263 103.188 603.216 102.607L603.507 103.084C602.564 103.659 601.627 104.272 600.723 104.905ZM660.137 104.817C659.227 104.184 658.288 103.573 657.343 103.001L657.632 102.523C658.587 103.101 659.537 103.718 660.456 104.358ZM606.401 101.445 606.142 100.951C607.129 100.432 608.147 99.9397 609.166 99.4855L609.394 99.9958C608.385 100.445 607.378 100.933 606.401 101.445ZM654.439 101.369C653.458 100.858 652.447 100.373 651.434 99.9257L651.66 99.4146C652.683 99.8663 653.705 100.357 654.697 100.873ZM612.472 98.7428 612.278 98.2188C613.325 97.8314 614.399 97.473 615.47 97.1538L615.629 97.6893C614.57 98.0049 613.508 98.3596 612.472 98.7428ZM648.342 98.6794C647.305 98.2996 646.241 97.9487 645.182 97.637L645.339 97.101C646.41 97.4164 647.485 97.7708 648.535 98.1549ZM618.848 96.8415 618.723 96.2971C619.81 96.048 620.921 95.8309 622.025 95.6516L622.115 96.2033C621.022 96.3806 619.923 96.5951 618.848 96.8415ZM641.96 96.8007C640.883 96.558 639.783 96.3474 638.691 96.174L638.778 95.6223C639.882 95.7974 640.994 96.0106 642.082 96.2558ZM625.415 95.7756 625.361 95.2198C626.47 95.1123 627.6 95.0385 628.718 95.0014L628.737 95.5597C627.63 95.5966 626.513 95.6692 625.415 95.7756ZM635.388 95.7583C634.289 95.6555 633.172 95.5868 632.066 95.5541L632.083 94.9958C633.2 95.029 634.33 95.0983 635.44 95.2022Z" fill="#D0CDE1" fill-rule="evenodd"/><path d="M678 147C678 172.957 656.957 194 631 194 605.043 194 584 172.957 584 147 584 121.043 605.043 100 631 100 656.957 100 678 121.043 678 147Z" fill="#92E3A9" fill-rule="evenodd"/><path d="M650.511 143.271 634.203 143.271C631.116 143.271 628.612 140.777 628.612 137.699L628.612 121.449C628.612 121.193 628.404 120.985 628.146 120.985 628.146 120.985 628.146 120.985 628.146 120.985L617.43 120.985C613.313 120.985 609.976 124.31 609.976 128.413L609.976 165.557C609.976 169.659 613.313 172.985 617.43 172.985L643.522 172.985C647.639 172.985 650.976 169.659 650.976 165.557L650.976 143.735C650.976 143.479 650.768 143.271 650.511 143.271 650.511 143.271 650.511 143.271 650.511 143.271ZM639.794 161.842 621.158 161.842C620.128 161.842 619.293 161.011 619.293 159.985 619.293 158.959 620.128 158.128 621.158 158.128L639.794 158.128C640.824 158.128 641.658 158.959 641.658 159.985 641.658 161.011 640.824 161.842 639.794 161.842ZM639.794 152.557 621.158 152.557C620.128 152.557 619.293 151.725 619.293 150.699 619.293 149.674 620.128 148.842 621.158 148.842L639.794 148.842C640.824 148.842 641.658 149.674 641.658 150.699 641.658 151.725 640.824 152.557 639.794 152.557Z" fill="#FFFFFF" fill-rule="evenodd"/><path d="M649.91 139.569 633.369 122.055C633.279 121.96 633.133 121.961 633.044 122.055 633.001 122.101 632.977 122.163 632.976 122.227L632.976 138.035C632.976 139.112 633.8 139.984 634.817 139.984L649.748 139.984C649.874 139.983 649.976 139.874 649.976 139.74 649.976 139.675 649.952 139.614 649.91 139.568Z" fill="#FFFFFF" fill-rule="evenodd"/></g></svg>