<svg width="756" height="756" xmlns="http://www.w3.org/2000/svg" xmlns:xlink="http://www.w3.org/1999/xlink" overflow="hidden"><defs><clipPath id="clip0"><rect x="0" y="0" width="756" height="756"/></clipPath></defs><g clip-path="url(#clip0)"><rect x="0" y="0" width="756" height="756" fill="#E5FFED" fill-opacity="0"/><path d="M289.001 487.248 289.001 532.68 262.219 539.397C259.995 547.097 256.898 554.514 252.979 561.499L267.416 585.262 235.293 617.403 211.615 602.958C204.612 606.887 197.177 609.993 189.453 612.203L182.812 639 137.333 639 130.692 612.203C122.975 609.979 115.539 606.88 108.53 602.958L84.8527 617.403 52.5844 585.479 67.0221 561.788C63.1167 554.767 60.02 547.328 57.782 539.614L31 532.897 31 487.248 57.782 480.603C60.0056 472.882 63.1023 465.442 67.0221 458.429L52.5844 434.738 84.708 402.596 108.458 417.042C115.439 413.113 122.852 410.007 130.548 407.797L137.189 381 182.667 381 189.308 407.797C197.011 409.992 204.425 413.098 211.398 417.042L235.148 402.596 267.272 434.738 252.834 458.429C256.754 465.442 259.851 472.882 262.074 480.603ZM159.928 466.446C136.005 466.446 116.616 485.847 116.616 509.784 116.616 533.72 136.005 553.121 159.928 553.121 183.851 553.121 203.241 533.72 203.241 509.784 203.241 485.847 183.851 466.446 159.928 466.446Z" fill="#D7FFE2" fill-rule="evenodd"/><path d="M418.001 603.762 408.312 627.044 393.201 624.729C390.417 628.215 387.236 631.367 383.729 634.129L386.044 649.313 362.762 659.001 353.652 646.637C349.235 647.143 344.766 647.143 340.348 646.637L331.239 659.001 307.957 649.313 310.199 634.201C306.728 631.396 303.576 628.222 300.8 624.729L285.616 627.044 276 603.762 288.364 594.652C287.857 590.235 287.857 585.766 288.364 581.348L276 572.239 285.616 548.957 300.8 551.198C303.583 547.728 306.728 544.583 310.199 541.8L307.957 526.616 331.239 517 340.348 529.364C344.766 528.821 349.235 528.821 353.652 529.364L362.762 517.072 386.044 526.689 383.729 541.872C387.229 544.612 390.389 547.771 393.129 551.271L408.312 549.03 418.001 572.311 405.637 581.421C406.143 585.838 406.143 590.307 405.637 594.725Z" fill="#D7FFE2" fill-rule="evenodd"/><path d="M418.001 603.762 408.312 627.044 393.201 624.729C390.417 628.215 387.236 631.367 383.729 634.129L386.044 649.313 362.762 659.001 353.652 646.637C349.235 647.143 344.766 647.143 340.348 646.637L331.239 659.001 307.957 649.313 310.199 634.201C306.728 631.396 303.576 628.222 300.8 624.729L285.616 627.044 276 603.762 288.364 594.652C287.857 590.235 287.857 585.766 288.364 581.348L276 572.239 285.616 548.957 300.8 551.198C303.583 547.728 306.728 544.583 310.199 541.8L307.957 526.616 331.239 517 340.348 529.364C344.766 528.821 349.235 528.821 353.652 529.364L362.762 517.072 386.044 526.689 383.729 541.872C387.229 544.612 390.389 547.771 393.129 551.271L408.312 549.03 418.001 572.311 405.637 581.421C406.143 585.838 406.143 590.307 405.637 594.725Z" fill="#D7FFE2" fill-rule="evenodd"/></g></svg>