<svg width="756" height="756" xmlns="http://www.w3.org/2000/svg" xmlns:xlink="http://www.w3.org/1999/xlink" overflow="hidden"><defs><clipPath id="clip0"><rect x="0" y="0" width="756" height="756"/></clipPath></defs><g clip-path="url(#clip0)"><rect x="0" y="0" width="756" height="756" fill="#E5FFED" fill-opacity="0"/><path d="M247 147C247 185.66 215.66 217 177 217 138.34 217 107 185.66 107 147 107 108.34 138.34 77 177 77 215.66 77 247 108.34 247 147Z" fill="#92E3A9" fill-rule="evenodd"/><path d="M176.98 227 175.504 227 175.504 225.017C177.498 225.017 179.492 224.977 181.486 224.898L181.606 226.881C180.091 226.96 178.476 227 176.98 227ZM169.403 226.663C167.409 226.465 165.415 226.187 163.421 225.85L163.76 223.866C165.754 224.204 167.748 224.481 169.742 224.66ZM187.728 226.286 187.469 224.303C189.463 224.045 191.457 223.708 193.351 223.291L193.77 225.274C191.795 225.671 189.762 226.028 187.728 226.286ZM157.339 224.58C155.345 224.085 153.351 223.509 151.357 222.875L151.995 220.891C153.869 221.526 155.803 222.081 157.718 222.557ZM199.712 223.747 199.154 221.764C201.048 221.209 202.942 220.574 204.797 219.781L205.514 221.645C203.6 222.518 201.646 223.172 199.712 223.747ZM145.734 220.713C143.859 219.92 142.005 219.047 140.191 218.115L141.108 216.37C142.862 217.262 144.697 218.115 146.511 218.888ZM211.157 219.404 210.3 217.619C212.095 216.766 213.869 215.854 215.604 214.862L216.581 216.588C214.826 217.599 212.992 218.551 211.157 219.424ZM134.866 215.12C133.151 214.049 131.437 212.899 129.782 211.709L130.958 210.102C132.573 211.273 134.248 212.403 135.923 213.434ZM221.786 213.375 220.669 211.729C222.304 210.618 223.919 209.448 225.494 208.198L226.731 209.745C225.116 211.035 223.461 212.244 221.786 213.474ZM124.996 207.921C123.441 206.612 121.945 205.224 120.489 203.796L121.905 202.387C123.301 203.776 124.777 205.144 126.292 206.354ZM231.377 205.779 230.021 204.331C230.739 203.677 231.437 203.002 232.135 202.348 232.832 201.693 233.55 200.9 234.248 200.166L235.704 201.515C235.006 202.269 234.288 203.002 233.53 203.756 232.773 204.51 232.115 205.104 231.377 205.779ZM116.322 199.333C114.986 197.786 113.71 196.2 112.493 194.553L114.109 193.383C115.285 194.97 116.541 196.537 117.837 198.044ZM239.692 196.854 238.137 195.605C239.373 194.058 240.549 192.451 241.666 190.825L243.301 191.935C242.164 193.641 240.948 195.248 239.692 196.854ZM109.064 189.516C107.987 187.79 106.95 186.025 106.013 184.221L107.788 183.308C108.705 185.053 109.782 186.799 110.759 188.465ZM246.531 186.759 244.797 185.787C245.794 184.062 246.791 182.297 247.548 180.512L249.363 181.365C248.485 183.189 247.548 185.014 246.531 186.759ZM103.401 178.707C102.603 176.862 101.865 174.939 101.207 173.015L103.102 172.38C103.74 174.264 104.458 176.129 105.235 177.934ZM251.756 175.752 249.881 175.038C250.599 173.213 251.237 171.309 251.875 169.425L253.869 169.981C253.132 171.924 252.473 173.808 251.756 175.792ZM99.4725 167.184C98.9741 165.201 98.5353 163.217 98.1765 161.234L100.171 160.897C100.509 162.88 100.928 164.864 101.427 166.708ZM255.205 164.07 253.211 163.654C253.63 161.671 253.969 159.687 254.248 157.803L256.242 158.061C255.983 160.064 255.644 162.087 255.205 164.07ZM97.359 155.185C97.1595 153.202 97.04 151.219 97 149.096L98.994 149.096C98.994 151.08 99.1535 153.063 99.353 155.046ZM256.88 151.992 254.886 151.992C254.886 150.505 255.006 149.037 255.006 147.55L255.006 146.042 257 146.042 257 147.589C256.96 148.958 256.92 150.485 256.84 151.992ZM99.1336 143.127 97.1396 143.008C97.2591 141.025 97.4586 139.041 97.7178 136.939L99.7118 137.197C99.3928 139.16 99.2134 141.144 99.0936 143.127ZM254.667 140.013C254.487 138.03 254.228 136.047 253.889 134.063L255.883 133.726C256.242 135.709 256.502 137.693 256.701 139.775ZM100.709 131.346 98.7149 130.93C99.1336 128.946 99.6321 126.963 100.21 124.98L102.204 125.535C101.566 127.479 101.068 129.422 100.709 131.346ZM252.613 128.312C252.135 126.328 251.556 124.484 250.918 122.62L252.813 121.985C253.471 123.968 254.049 125.952 254.547 127.836ZM104.059 119.962 102.184 119.248C102.922 117.364 103.72 115.48 104.577 113.635L106.392 114.488C105.494 116.293 104.697 118.118 104.019 119.962ZM248.805 117.066C248.027 115.262 247.17 113.437 246.252 111.692L248.027 110.779C248.964 112.584 249.841 114.429 250.639 116.293ZM109.124 109.133 107.389 108.161C108.386 106.396 109.383 104.651 110.619 102.985L112.274 104.076C111.118 105.801 110.061 107.487 109.084 109.213ZM243.301 106.436C242.244 104.77 241.128 103.104 239.951 101.518L241.566 100.347C242.763 101.974 243.919 103.679 244.996 105.405ZM115.684 99.2961 114.129 98.0666C115.385 96.48 116.721 94.9131 118.117 93.4258L119.572 94.7744C118.276 96.3015 116.98 97.8286 115.744 99.3757ZM236.123 96.8766C234.826 95.3693 233.471 93.9016 232.135 92.5134L231.975 92.3547 233.371 90.9465 233.55 91.125C234.966 92.5332 236.382 94.0405 237.698 95.5678ZM123.84 90.649 122.483 89.2012C123.979 87.8131 125.554 86.4644 127.13 85.2347L128.366 86.7817C126.83 87.9915 125.315 89.3004 123.84 90.649ZM227.528 88.4079C226.033 87.1189 224.438 85.8891 222.842 84.7191L224.019 83.1125C225.654 84.3027 227.289 85.572 228.825 86.9006ZM133.151 83.2316 132.015 81.5854C133.71 80.455 135.445 79.3642 137.219 78.3726L138.216 80.0781C136.601 81.0699 134.826 82.121 133.191 83.2316ZM217.897 81.407C216.202 80.3757 214.448 79.4237 212.693 78.4915L213.61 76.7264C215.425 77.6389 217.199 78.7097 218.954 79.7213ZM143.5 77.4404 142.643 75.6356C144.498 74.7629 146.392 73.9696 148.286 73.2359L149.004 75.1002C147.189 75.6951 145.335 76.4884 143.54 77.3413ZM207.309 76.072C205.494 75.2985 203.6 74.5845 201.726 73.9696L202.364 71.9863C204.358 72.621 206.212 73.3547 208.087 74.1283ZM154.667 73.1763 154.109 71.2921C156.103 70.6972 158.097 70.2015 160.091 69.7651L160.509 71.7483C158.535 72.0261 156.541 72.5219 154.687 73.0772ZM196.003 72.3037C194.009 71.8277 192.015 71.4112 190.16 71.0741L190.48 69.0908C192.474 69.4279 194.468 69.8444 196.462 70.3404ZM166.372 70.6775 166.093 68.6942C168.087 68.4364 170.081 68.2182 172.194 68.0991L172.314 70.0824C170.34 70.1221 168.346 70.3204 166.372 70.6775ZM184.318 70.3006C182.324 70.1221 180.33 70.003 178.336 69.9833L178.336 68C180.33 68 182.444 68.1389 184.458 68.3371Z" fill="#92E3A9" fill-rule="evenodd"/><path d="M218 121.04C214.47 123.775 211.021 126.63 207.511 129.425 204.001 132.22 200.571 135.095 197.121 137.97 193.252 141.164 189.424 144.399 185.595 147.653L185.595 147.653C182.703 150.069 179.832 152.545 176.98 155 174.128 152.545 171.237 150.109 168.365 147.653L168.365 147.653C164.556 144.359 160.708 141.125 156.879 137.93 153.409 135.055 149.939 132.22 146.449 129.385 142.96 126.55 139.53 123.735 136 121Z" fill="#FFFFFF" fill-rule="evenodd"/><path d="M218 121 218 173 136 173 136 121C139.309 124.188 142.677 127.216 145.966 130.324 149.255 133.432 152.703 136.441 156.072 139.429 159.44 142.418 163.167 145.725 166.715 148.813L167.054 149.092 167.373 149.351 166.715 149.75C164.403 151.045 162.171 152.439 159.978 153.874 157.208 155.627 154.497 157.48 151.766 159.353 149.036 161.225 146.444 163.158 143.793 165.15 141.143 167.143 138.611 169.135 136.1 171.326 139.01 169.753 141.8 168.019 144.571 166.226 147.341 164.433 150.032 162.62 152.723 160.767 155.414 158.914 158.104 156.962 160.696 154.95 162.848 153.356 164.941 151.702 167.014 149.949L167.512 149.53C170.482 152.14 173.492 154.71 176.442 157.3L176.9 157.699 177.359 157.3C180.349 154.71 183.338 152.1 186.328 149.55L186.806 149.949C188.8 151.702 190.952 153.356 193.085 154.95 195.696 156.942 198.367 158.934 201.058 160.767 203.749 162.6 206.46 164.453 209.23 166.226 212.001 167.999 214.791 169.753 217.701 171.326 215.21 169.155 212.618 167.123 209.987 165.15 207.356 163.178 204.725 161.166 202.015 159.353 199.304 157.539 196.593 155.627 193.823 153.874 191.63 152.439 189.398 151.045 187.086 149.75 186.89 149.614 186.683 149.495 186.468 149.391L186.787 149.112C186.906 149.112 186.986 148.893 187.086 148.813 190.654 145.725 194.181 142.597 197.709 139.449 201.237 136.301 204.486 133.472 207.855 130.324 211.223 127.176 214.691 124.188 218 121Z" fill="#FFFFFF" fill-rule="evenodd"/><path d="M253.62 224 249.5 219.869 250.88 218.486 255 222.617ZM245.38 215.718 241.26 211.587 242.62 210.223 246.74 214.354ZM237.12 207.456 233 203.384 234.38 202 238.5 206.131Z" fill="#92E3A9" fill-rule="evenodd"/></g></svg>