<svg width="756" height="756" xmlns="http://www.w3.org/2000/svg" xmlns:xlink="http://www.w3.org/1999/xlink" overflow="hidden"><defs><clipPath id="clip0"><rect x="0" y="0" width="756" height="756"/></clipPath></defs><g clip-path="url(#clip0)"><rect x="0" y="0" width="756" height="756" fill="#E5FFED" fill-opacity="0"/><path d="M627 608C627 633.957 605.957 655 580 655 554.043 655 533 633.957 533 608 533 582.043 554.043 561 580 561 605.957 561 627 582.043 627 608Z" fill="#92E3A9" fill-rule="evenodd"/><path d="M587.475 598.985C586.094 598.986 584.976 600.106 584.976 601.487 584.977 602.867 586.097 603.986 587.478 603.985 588.858 603.984 589.977 602.865 589.976 601.484 589.976 600.82 589.712 600.185 589.243 599.716 588.774 599.248 588.138 598.985 587.475 598.985Z" fill="#FFFFFF" fill-rule="evenodd"/><path d="M600.742 588.677 600.742 588.669C600.584 587.96 600.048 587.405 599.358 587.235 596.63 586.553 592.34 587.28 587.586 589.23 583.013 591.05 578.83 593.764 575.268 597.219 574.295 598.21 573.392 599.27 572.564 600.391 570.735 600.261 568.901 600.563 567.203 601.273 561.919 603.655 560.41 609.752 560.008 612.255 559.8 613.532 560.641 614.74 561.887 614.953 562.089 614.989 562.294 614.995 562.497 614.974L562.509 614.974 568.395 614.316C568.403 614.393 568.41 614.463 568.417 614.528 568.493 615.262 568.812 615.948 569.323 616.47L572.196 619.415C572.705 619.938 573.375 620.267 574.091 620.344L574.289 620.365 573.647 626.388 573.647 626.401C573.518 627.688 574.431 628.84 575.688 628.973 575.759 628.981 575.829 628.985 575.9 628.985 576.027 628.986 576.154 628.975 576.279 628.953 578.737 628.549 584.686 627.021 587.005 621.579 587.693 619.846 587.988 617.976 587.87 616.109 588.968 615.263 590.007 614.337 590.977 613.339 594.348 609.725 597 605.473 598.785 600.821 600.678 596.006 601.391 591.578 600.742 588.677ZM590.944 605.072C588.845 607.225 585.439 607.227 583.337 605.076 581.236 602.927 581.234 599.438 583.333 597.285 585.433 595.132 588.839 595.13 590.941 597.281L590.944 597.285C593.043 599.403 593.069 602.863 591.001 605.014Z" fill="#FFFFFF" fill-rule="evenodd"/><path d="M571.659 620.322C571.296 620.28 570.929 620.362 570.628 620.551 570.028 620.927 569.426 621.298 568.819 621.659 568.169 622.043 567.303 621.87 566.885 621.275 566.602 620.871 566.589 620.357 566.85 619.941L567.989 618.137C568.456 617.51 568.281 616.654 567.597 616.226 567.296 616.037 566.929 615.955 566.568 615.996 565.303 616.142 564.128 616.671 563.227 617.497 562.883 617.812 561.84 618.769 561.279 622.416 561.118 623.464 561.017 624.519 560.976 625.576 560.955 626.335 561.609 626.967 562.437 626.986 562.437 626.986 562.437 626.986 562.437 626.986 562.45 626.986 562.463 626.986 562.476 626.986L562.513 626.986C563.669 626.949 564.82 626.857 565.965 626.712 569.946 626.196 570.991 625.238 571.334 624.924 572.24 624.098 572.815 623.016 572.965 621.853 573.065 621.1 572.48 620.415 571.659 620.322Z" fill="#FFFFFF" fill-rule="evenodd"/><path d="M580.517 660.996C579.96 660.992 579.396 660.988 578.842 660.97L578.859 660.412C579.407 660.429 579.968 660.437 580.517 660.437 581.069 660.437 581.631 660.428 582.189 660.41L582.207 660.968C581.643 660.987 581.074 660.996 580.517 660.996ZM575.485 660.76C574.373 660.654 573.25 660.512 572.148 660.336L572.236 659.784C573.326 659.958 574.437 660.1 575.538 660.204ZM585.564 660.754 585.511 660.198C586.61 660.093 587.721 659.95 588.812 659.774L588.901 660.326C587.798 660.503 586.675 660.647 585.564 660.754ZM568.844 659.699C567.756 659.452 566.66 659.166 565.589 658.849L565.747 658.313C566.807 658.627 567.891 658.909 568.968 659.153ZM592.204 659.685 592.079 659.14C593.159 658.894 594.242 658.61 595.299 658.296L595.458 658.832C594.39 659.149 593.295 659.436 592.203 659.685ZM562.394 657.792C561.344 657.406 560.293 656.981 559.27 656.528L559.496 656.018C560.508 656.465 561.547 656.886 562.587 657.267ZM598.651 657.77 598.458 657.246C599.491 656.865 600.527 656.445 601.537 655.996L601.764 656.507C600.742 656.96 599.695 657.385 598.651 657.77ZM556.235 655.066C555.247 654.55 554.26 653.994 553.302 653.413L553.591 652.935C554.539 653.51 555.516 654.06 556.494 654.571ZM604.79 655.046 604.532 654.551C605.508 654.04 606.482 653.49 607.427 652.915L607.718 653.393C606.762 653.974 605.777 654.53 604.79 655.046ZM550.48 651.575C549.565 650.936 548.657 650.258 547.783 649.561L548.131 649.124C548.996 649.814 549.894 650.484 550.8 651.117ZM610.534 651.555 610.214 651.097C611.12 650.464 612.016 649.794 612.879 649.104L613.228 649.541C612.356 650.237 611.449 650.915 610.534 651.555ZM545.22 647.378C544.392 646.627 543.579 645.839 542.802 645.038L543.203 644.649C543.971 645.442 544.777 646.221 545.596 646.965ZM615.788 647.359 615.413 646.945C616.23 646.203 617.034 645.423 617.804 644.629L618.205 645.017C617.427 645.821 616.614 646.608 615.788 647.359ZM540.538 642.549C539.813 641.699 539.106 640.815 538.437 639.922L538.884 639.587C539.546 640.471 540.245 641.346 540.962 642.186ZM620.468 642.526 620.043 642.164C620.76 641.323 621.46 640.447 622.121 639.561L622.569 639.895C621.9 640.79 621.193 641.676 620.468 642.526ZM536.509 637.166C535.898 636.23 535.31 635.263 534.761 634.293L535.247 634.018C535.79 634.978 536.372 635.934 536.977 636.86ZM624.497 637.135 624.03 636.83C624.634 635.903 625.216 634.945 625.759 633.983L626.246 634.257C625.697 635.23 625.109 636.198 624.497 637.135ZM533.202 631.315C532.716 630.31 532.257 629.276 531.837 628.243L532.355 628.033C532.77 629.055 533.224 630.077 533.705 631.071ZM627.806 631.271 627.303 631.028C627.784 630.032 628.238 629.007 628.653 627.981L629.171 628.191C628.751 629.228 628.292 630.265 627.806 631.271ZM530.671 625.087C530.318 624.026 529.995 622.94 529.712 621.861L530.252 621.719C530.533 622.787 530.852 623.861 531.201 624.91ZM630.335 625.028 629.805 624.852C630.152 623.804 630.47 622.729 630.75 621.659L631.29 621.801C631.008 622.882 630.686 623.968 630.335 625.028ZM528.963 618.58C528.749 617.484 528.569 616.367 528.426 615.258L528.98 615.187C529.121 616.284 529.3 617.389 529.511 618.473ZM632.035 618.519 631.487 618.413C631.697 617.329 631.874 616.223 632.014 615.125L632.568 615.196C632.427 616.306 632.247 617.423 632.035 618.519ZM528.103 611.909C528.032 610.796 527.995 609.664 527.993 608.546L528.552 608.545C528.553 609.652 528.59 610.771 528.661 611.873ZM632.888 611.847 632.33 611.811C632.4 610.711 632.435 609.591 632.435 608.484L632.435 608.362 632.993 608.362 632.993 608.482C632.993 609.603 632.958 610.734 632.888 611.847ZM528.653 605.217 528.095 605.183C528.165 604.067 528.271 602.94 528.41 601.833L528.965 601.903C528.826 602.998 528.721 604.114 528.653 605.217ZM632.323 605.034C632.25 603.93 632.141 602.815 631.999 601.72L632.553 601.648C632.696 602.754 632.807 603.881 632.88 604.997ZM529.488 598.615 528.939 598.509C529.15 597.413 529.399 596.309 529.681 595.227L530.221 595.368C529.943 596.438 529.696 597.53 529.488 598.615ZM631.464 598.435C631.251 597.349 631 596.258 630.719 595.19L631.259 595.048C631.543 596.127 631.797 597.23 632.012 598.327ZM531.163 592.174 530.632 591.999C530.983 590.938 531.373 589.873 531.792 588.834L532.31 589.044C531.896 590.071 531.509 591.124 531.163 592.174ZM629.766 592C629.415 590.952 629.026 589.901 628.61 588.878L629.126 588.667C629.548 589.701 629.942 590.763 630.296 591.823ZM533.657 585.994 533.154 585.752C533.638 584.744 534.162 583.739 534.711 582.764L535.198 583.038C534.655 584.003 534.137 584.997 533.657 585.994ZM627.256 585.842C626.775 584.85 626.255 583.859 625.709 582.897L626.195 582.621C626.747 583.594 627.272 584.595 627.758 585.598ZM536.924 580.188 536.456 579.884C537.065 578.947 537.713 578.018 538.381 577.121L538.829 577.455C538.167 578.342 537.526 579.262 536.924 580.188ZM623.977 580.057C623.373 579.134 622.73 578.217 622.066 577.333L622.513 576.997C623.184 577.891 623.833 578.818 624.444 579.751ZM540.904 574.85 540.479 574.489C541.202 573.637 541.962 572.798 542.739 571.995L543.14 572.383C542.372 573.178 541.62 574.008 540.904 574.85ZM619.985 574.735C619.267 573.895 618.512 573.068 617.742 572.275L618.142 571.886C618.921 572.687 619.683 573.523 620.409 574.372ZM545.529 570.063 545.153 569.65C545.979 568.897 546.84 568.162 547.711 567.465L548.06 567.901C547.198 568.591 546.347 569.318 545.529 570.063ZM615.346 569.962C614.527 569.221 613.673 568.495 612.808 567.806L613.156 567.369C614.03 568.066 614.893 568.799 615.721 569.548ZM550.723 565.905 550.402 565.448C551.316 564.807 552.263 564.188 553.216 563.607L553.507 564.084C552.564 564.659 551.627 565.272 550.723 565.905ZM610.137 565.817C609.227 565.184 608.288 564.573 607.343 564.001L607.632 563.523C608.587 564.101 609.537 564.718 610.456 565.358ZM556.401 562.445 556.142 561.95C557.129 561.432 558.147 560.94 559.166 560.485L559.394 560.996C558.385 561.445 557.378 561.933 556.401 562.445ZM604.439 562.369C603.458 561.858 602.447 561.373 601.434 560.926L601.66 560.414C602.683 560.866 603.705 561.357 604.697 561.873ZM562.472 559.743 562.278 559.219C563.325 558.831 564.399 558.473 565.47 558.154L565.629 558.689C564.57 559.005 563.508 559.359 562.472 559.743ZM598.342 559.679C597.305 559.299 596.241 558.949 595.182 558.637L595.339 558.101C596.41 558.416 597.485 558.771 598.535 559.155ZM568.848 557.841 568.723 557.297C569.81 557.048 570.921 556.831 572.025 556.651L572.115 557.203C571.022 557.38 569.923 557.595 568.848 557.841ZM591.96 557.801C590.883 557.558 589.783 557.347 588.691 557.174L588.778 556.622C589.882 556.797 590.994 557.01 592.082 557.256ZM575.415 556.776 575.361 556.22C576.47 556.112 577.6 556.038 578.718 556.001L578.737 556.56C577.63 556.596 576.513 556.669 575.415 556.776ZM585.388 556.758C584.289 556.655 583.172 556.587 582.066 556.554L582.083 555.996C583.2 556.029 584.33 556.098 585.44 556.202Z" fill="#D0CDE1" fill-rule="evenodd"/></g></svg>