<svg width="756" height="756" xmlns="http://www.w3.org/2000/svg" xmlns:xlink="http://www.w3.org/1999/xlink" overflow="hidden"><defs><clipPath id="clip0"><rect x="0" y="0" width="756" height="756"/></clipPath></defs><g clip-path="url(#clip0)"><rect x="0" y="0" width="756" height="756" fill="#E5FFED" fill-opacity="0"/><path d="M473.152 437.989 507.587 479.99 507.503 479.709C512.799 482.784 503.629 477.007 508.924 480.082 508.924 480.082 531.344 486.813 528.019 477.595 524.694 468.378 488.974 424.776 488.974 424.776L473.152 437.989Z" fill="#92E3A9" fill-rule="evenodd"/><path d="M507.298 490.03 507.51 489.398 457.186 515.632 462.97 533.067C462.97 533.067 516.965 508.352 524.399 501.143 531.834 493.935 507.577 489.818 507.577 489.818 500.709 489.621 514.166 490.226 507.298 490.03Z" fill="#92E3A9" fill-rule="evenodd"/><path d="M445.863 517.297C449.432 510.013 458.229 507.001 465.513 510.57 472.797 514.138 475.808 522.936 472.24 530.219 468.671 537.503 459.874 540.515 452.59 536.946 445.307 533.378 442.295 524.58 445.863 517.297Z" fill="#263238" fill-rule="evenodd"/><path d="M444.118 504.676 457.696 512.809 457.696 512.809 454.223 518.608 454.223 518.608 440.645 510.475C439.156 509.583 438.672 507.653 439.564 506.164L439.801 505.768C440.687 504.276 442.614 503.784 444.107 504.669 444.111 504.672 444.114 504.674 444.118 504.676Z" fill="#263238" fill-rule="evenodd"/><path d="M432.024 528.254 445.735 521.261C445.956 521.148 446.226 521.236 446.339 521.457L448.996 526.667C449.109 526.887 449.021 527.158 448.8 527.271L435.089 534.264C433.543 535.052 431.65 534.438 430.862 532.892L430.652 532.481C429.864 530.935 430.478 529.042 432.024 528.254Z" fill="#263238" fill-rule="evenodd"/><path d="M434.982 535.55 448.104 527.506C448.316 527.376 448.592 527.443 448.722 527.654L451.778 532.64C451.908 532.851 451.842 533.128 451.63 533.258L438.508 541.302C437.028 542.209 435.094 541.744 434.187 540.265L433.945 539.871C433.038 538.392 433.502 536.457 434.982 535.55Z" fill="#263238" fill-rule="evenodd"/><path d="M440.102 541.33 452.071 531.653C452.264 531.497 452.547 531.527 452.702 531.719L456.38 536.267C456.535 536.46 456.506 536.743 456.313 536.899L444.345 546.576C442.995 547.668 441.016 547.458 439.925 546.109L439.635 545.75C438.544 544.4 438.753 542.421 440.102 541.33Z" fill="#263238" fill-rule="evenodd"/><path d="M510.327 472.517C518.267 466.563 529.53 468.173 535.484 476.113 541.438 484.053 539.828 495.316 531.888 501.27 523.948 507.224 512.685 505.614 506.731 497.674 500.777 489.734 502.387 478.471 510.327 472.517Z" fill="#263238" fill-rule="evenodd"/><path d="M507.865 485.885C507.959 485.844 507.915 486.939 508.2 488.535 509.036 492.832 511.793 496.511 515.684 498.518 517.17 499.274 518.192 499.503 518.168 499.611 517.249 499.625 516.34 499.425 515.512 499.026 511.32 497.151 508.394 493.241 507.777 488.689 507.59 487.76 507.621 486.8 507.865 485.885Z" fill="#FFFFFF" fill-rule="evenodd"/><path d="M69.0545 5.59215 15.0302 0 15.2872 0.141102C9.36147 1.68449 19.9416-0.667295 14.0159 0.876098 14.0159 0.876098-6.64633 11.8777 2.20401 16.084 11.0543 20.2904 67.1177 26.1142 67.1177 26.1142L69.0545 5.59215Z" fill="#92E3A9" fill-rule="evenodd" transform="matrix(0.710261 -0.703938 -0.703938 -0.710261 255.615 487.101)"/><path d="M40.0427 51.6807 40.6591 51.9335 17.7772 0 0 4.63027C0 4.63027 21.1269 60.127 27.8329 68.0176 34.5389 75.9082 40.2361 51.9736 40.2361 51.9736 40.8817 45.1329 39.3972 58.5214 40.0427 51.6807Z" fill="#92E3A9" fill-rule="evenodd" transform="matrix(0.0654812 -0.997854 -0.997854 -0.0654812 315.527 529.9)"/><path d="M29.3722 14.686C29.3722 22.7969 22.797 29.3721 14.6861 29.3721 6.57517 29.3721 0 22.7969 0 14.686 0 6.57514 6.57517 0 14.6861 0 22.797 0 29.3722 6.57514 29.3722 14.686Z" fill="#263238" fill-rule="evenodd" transform="matrix(0.898016 -0.439963 -0.439963 -0.898016 308.099 539.938)"/><path d="M3.14246 0 18.97 0 18.97 0 18.97 6.75948 18.97 6.75948 3.14246 6.75948C1.40692 6.75948 0 5.35246 0 3.617L0 3.1553C-0.00703729 1.41985 1.3941 0.00774996 3.12964 0 3.13382 0 3.13819 0 3.14246 0Z" fill="#263238" fill-rule="evenodd" transform="matrix(-0.857872 0.513863 0.513863 0.857872 332.455 499.591)"/><path d="M3.14246 0 18.5339 0C18.7818 0 18.9829 0.20141 18.9829 0.448875L18.9829 6.2977C18.9829 6.54526 18.7818 6.74667 18.5339 6.74667L3.14246 6.74667C1.40692 6.74667 0 5.33956 0 3.60419L0 3.14248C0 1.40702 1.40692 0 3.14246 0Z" fill="#263238" fill-rule="evenodd" transform="matrix(-0.890828 -0.454341 -0.454341 0.890828 344.653 526.211)"/><path d="M3.14246 0 18.5339 0C18.7819 0 18.9829 0.20141 18.9829 0.448964L18.9829 6.2977C18.9829 6.54526 18.7819 6.74667 18.5339 6.74667L3.14246 6.74667C1.40692 6.74667 0 5.33956 0 3.60419L0 3.14248C0 1.40702 1.40692 0 3.14246 0Z" fill="#263238" fill-rule="evenodd" transform="matrix(-0.852562 -0.522625 -0.522625 0.852562 341.574 533.722)"/><path d="M3.14246 0 18.5339 0C18.7818 0 18.9829 0.20141 18.9829 0.448964L18.9829 6.2977C18.9829 6.54526 18.7818 6.74667 18.5339 6.74667L3.14246 6.74667C1.40692 6.74667 0 5.33965 0 3.60419L0 3.14248C0 1.40702 1.40692 0 3.14246 0Z" fill="#263238" fill-rule="evenodd" transform="matrix(-0.777596 -0.628764 -0.628764 0.777596 336.218 539.836)"/><path d="M35.9392 17.9696C35.9392 27.8939 27.8939 35.9391 17.9696 35.9391 8.04524 35.9391 0 27.8939 0 17.9696 0 8.04522 8.04524 0 17.9696 0 27.8939 0 35.9392 8.04522 35.9392 17.9696Z" fill="#263238" fill-rule="evenodd" transform="matrix(0.599933 -0.80005 -0.80005 -0.599933 256.366 508.58)"/><path d="M16.6869 1.6852C16.6869 1.78782 15.6993 1.3132 14.1217 0.941299 9.84481 0.00498843 5.37444 1.07723 1.98808 3.85285 0.705422 4.91743 0.0897923 5.76395 0 5.69981 0.351954 4.85071 0.896408 4.09523 1.59043 3.49368 4.97492 0.388474 9.72438-0.746661 14.1474 0.492429 15.0744 0.688581 15.9436 1.09772 16.6869 1.6852Z" fill="#FFFFFF" fill-rule="evenodd" transform="matrix(0.396589 -0.917996 -0.917996 -0.396589 260.941 498.401)"/><path d="M314.719 411.408C324.61 420.198 325.501 435.342 316.711 445.233 307.92 455.124 292.776 456.015 282.886 447.225 272.995 438.434 272.103 423.29 280.894 413.4 289.684 403.509 304.828 402.617 314.719 411.408Z" fill="#263238" fill-rule="evenodd"/><path d="M299 453C285.745 453 275 442.255 275 429 275 415.746 285.745 405 299 405 312.255 405 323 415.746 323 429 323 435.365 320.472 441.469 315.971 445.971 311.48 450.486 305.369 453.017 299 453ZM299 405.077C285.78 405.063 275.053 415.769 275.039 428.989 275.026 442.207 285.731 452.935 298.951 452.949 312.17 452.963 322.897 442.257 322.912 429.037 322.918 422.69 320.403 416.6 315.919 412.106 311.445 407.598 305.352 405.067 299 405.077Z" fill="#263238" fill-rule="evenodd"/><path d="M491.82 413.481C501.917 422.034 503.168 437.153 494.615 447.249 486.061 457.346 470.943 458.597 460.846 450.044 450.75 441.49 449.499 426.372 458.052 416.275 466.605 406.179 481.724 404.928 491.82 413.481Z" fill="#263238" fill-rule="evenodd"/><path d="M476.032 456C462.766 456.006 452.006 445.257 452 431.989 451.999 429.588 452.357 427.202 453.064 424.907 456.983 412.247 470.422 405.161 483.082 409.079 495.741 413 502.826 426.439 498.907 439.1 495.802 449.132 486.534 455.98 476.032 456ZM476.032 408.032C462.808 408.045 452.1 418.777 452.113 432.002 452.126 445.227 462.857 455.936 476.081 455.923 486.577 455.913 495.843 449.067 498.937 439.036L498.937 439.036C502.818 426.403 495.739 413.015 483.115 409.11 480.797 408.392 478.383 408.029 475.955 408.032Z" fill="#263238" fill-rule="evenodd"/><path d="M292 404.17C292 404.17 293.727 572.665 387.887 575.954 482.046 579.243 486 405.378 486 404.17 486 404.17 474.881 379.051 389 380.028 303.119 381.004 292 404.17 292 404.17Z" fill="#92E3A9" fill-rule="evenodd"/><path d="M344.462 375C339.236 375 335 375 335 375L335 355C335 355 339.236 355 344.462 355L424.538 355C429.764 355 434 355 434 355L434 375C434 375 429.764 375 424.538 375Z" fill="#263238" fill-rule="evenodd"/><path d="M388 225 381 225 381 190 388 190Z" fill="#263238" fill-rule="evenodd"/><path d="M504.905 304.505C507.49 315.38 500.769 326.292 489.894 328.877 479.019 331.461 468.108 324.741 465.523 313.866 462.938 302.99 469.659 292.079 480.534 289.494 491.409 286.909 502.32 293.63 504.905 304.505Z" fill="#92E3A9" fill-rule="evenodd"/><path d="M300.644 303.347C303.116 314.248 296.284 325.09 285.382 327.562 274.481 330.035 263.639 323.202 261.167 312.301 258.694 301.4 265.527 290.558 276.428 288.086 287.329 285.613 298.171 292.446 300.644 303.347Z" fill="#92E3A9" fill-rule="evenodd"/><path d="M380.969 218.05C380.969 218.05 298.623 217.069 285.609 287.953 272.595 358.839 342.209 360.113 362.244 361.452 371.318 362.063 390.749 362.127 407.896 361.821 445.86 361.171 472.684 353.88 481.81 318.903 482.897 314.801 483.579 310.605 483.85 306.373 486.25 267.979 460.158 216.164 380.969 218.05Z" fill="#92E3A9" fill-rule="evenodd"/><path d="M440.652 326.148 321.092 327.997C308.562 328.216 298.225 318.298 298.005 305.845 298.003 305.83 298.003 305.816 298.003 305.801L298.003 305.801C297.789 293.34 307.779 283.065 320.316 282.852 320.326 282.852 320.338 282.852 320.348 282.852L439.908 281.004C452.431 280.777 462.767 290.683 462.995 303.13 462.995 303.153 462.996 303.177 462.996 303.2L462.996 303.2C463.217 315.653 453.239 325.927 440.71 326.147 440.69 326.148 440.671 326.148 440.652 326.148Z" fill="#263238" fill-rule="evenodd"/><path d="M345.857 303.351C345.059 307.144 341.117 309.613 337.053 308.867 332.99 308.122 330.343 304.443 331.143 300.65 331.941 296.859 335.881 294.388 339.943 295.132 344.007 295.877 346.655 299.555 345.859 303.347 345.857 303.348 345.857 303.35 345.857 303.351Z" fill="#FFFFFF" fill-rule="evenodd"/><path d="M428.87 301.934C428.13 305.999 424.455 308.652 420.661 307.86 416.867 307.067 414.391 303.13 415.131 299.066 415.87 295.001 419.544 292.348 423.338 293.14 423.342 293.141 423.346 293.141 423.349 293.143 427.138 293.94 429.608 297.874 428.87 301.934Z" fill="#FFFFFF" fill-rule="evenodd"/><path d="M416.913 470.866C415.606 488.766 400.036 502.219 382.134 500.912 364.233 499.606 350.781 484.034 352.088 466.134 353.394 448.235 368.961 434.783 386.861 436.087 404.76 437.398 418.213 452.965 416.913 470.866Z" fill="#263238" fill-rule="evenodd"/><path d="M407.936 470.752C406.989 483.971 395.728 493.903 382.785 492.935 369.841 491.968 360.116 480.468 361.064 467.248 362.011 454.03 373.271 444.098 386.215 445.065 386.215 445.065 386.216 445.065 386.216 445.065 399.153 446.026 408.878 457.515 407.937 470.727 407.937 470.736 407.936 470.744 407.936 470.752Z" fill="#FFFFFF" fill-rule="evenodd"/><path d="M396.366 474.703C396.191 473.432 396.12 472.149 396.155 470.866 396.093 468.462 396.043 465.028 396.043 460.801L396.292 461.266 384.475 454.283 385.134 454.283 373.205 461.065C372.882 461.618 373.64 460.322 373.566 460.461L373.566 460.461 373.566 462.247 373.566 464.046C373.566 465.229 373.566 466.412 373.503 467.569 373.503 469.884 373.417 472.124 373.379 474.288L373.056 473.709 384.736 480.931 384.214 480.931C387.855 478.943 390.862 477.358 392.912 476.276 394.015 475.64 395.166 475.093 396.354 474.64 395.427 475.405 394.428 476.074 393.372 476.64 391.359 477.899 388.402 479.673 384.674 481.849L384.413 482 384.152 481.849 372.323 474.866 372 474.678 372 474.275C372 472.111 372.025 469.872 372.075 467.557 372.075 466.399 372.075 465.229 372.075 464.034L372.075 462.247 372.075 460.511 372.075 460.511C372 460.65 372.758 459.366 372.435 459.907L384.401 453.189 384.749 453 385.072 453.201 396.739 460.423 397 460.587 397 460.889C396.863 465.242 396.727 468.739 396.602 471.117 396.635 472.317 396.555 473.518 396.366 474.703Z" fill="#92E3A9" fill-rule="evenodd"/><path d="M392.613 181.651C397.046 186.084 397.046 193.271 392.613 197.704 388.18 202.137 380.992 202.137 376.56 197.704 372.127 193.271 372.127 186.084 376.56 181.651 380.992 177.218 388.18 177.218 392.613 181.651Z" fill="#92E3A9" fill-rule="evenodd"/><path d="M366.862 300.002C367.387 300.064 367.124 302.487 368.672 305.806 369.549 307.71 370.825 309.405 372.415 310.777 374.279 312.411 376.598 313.438 379.065 313.723 381.544 313.882 384.015 313.293 386.152 312.033 387.961 310.985 389.527 309.566 390.744 307.869 392.865 304.923 393.052 302.45 393.576 302.487 393.788 302.487 394 303.109 394 304.277 393.953 305.941 393.526 307.573 392.752 309.05 391.59 311.281 389.871 313.177 387.762 314.556 382.374 318.338 375.029 317.669 370.418 312.977 368.597 311.242 367.255 309.067 366.526 306.663 366.005 305.06 365.869 303.357 366.126 301.692 366.338 300.536 366.663 299.964 366.862 300.002Z" fill="#FFFFFF" fill-rule="evenodd"/><path d="M476.008 333C475.883 333 477.311 330.71 478.689 326.701 480.402 321.452 481.487 316.007 481.917 310.49 482.413 304.992 482.538 299.464 482.289 293.948 482.202 291.823 482.103 290.13 482.003 288.858 481.919 288.242 481.899 287.62 481.941 287 482.1 287.599 482.205 288.213 482.252 288.832 482.426 290.016 482.599 291.734 482.748 293.922 483.138 299.483 483.075 305.067 482.562 310.617 482.125 316.187 480.969 321.672 479.123 326.93 478.539 328.516 477.834 330.052 477.013 331.524 476.72 332.044 476.384 332.538 476.008 333Z" fill="#263238" fill-rule="evenodd"/><path d="M285.469 286C285.388 286.621 285.242 287.232 285.03 287.826 284.846 288.401 284.647 289.103 284.463 289.946 284.279 290.789 283.996 291.708 283.826 292.768 283.329 295.229 282.999 297.716 282.835 300.214 282.644 303.27 282.692 306.333 282.977 309.383 283.292 312.428 283.842 315.448 284.619 318.425 285.269 320.859 286.083 323.256 287.055 325.602 287.437 326.611 287.876 327.492 288.23 328.284 288.584 329.076 288.924 329.74 289.207 330.276 289.53 330.828 289.795 331.405 290 332 289.596 331.493 289.247 330.955 288.952 330.391 288.551 329.752 288.188 329.096 287.862 328.424 287.465 327.658 286.984 326.777 286.573 325.768 285.523 323.428 284.652 321.026 283.968 318.578 283.139 315.573 282.562 312.517 282.24 309.434 281.951 306.354 281.923 303.26 282.155 300.175 282.352 297.656 282.74 295.151 283.316 292.679 283.529 291.619 283.826 290.687 284.067 289.857 284.308 289.027 284.534 288.324 284.747 287.75 284.935 287.149 285.176 286.564 285.469 286Z" fill="#263238" fill-rule="evenodd"/><path d="M291 404 291.488 404.144 292.927 404.643 298.399 406.611 302.355 408.055C303.806 408.553 305.412 409.026 307.12 409.564 310.55 410.6 314.416 411.952 318.809 413.001L325.656 414.799C328.045 415.416 330.563 415.875 333.157 416.452 338.295 417.66 343.934 418.486 349.856 419.457 362.661 421.252 375.568 422.194 388.494 422.278 401.419 422.201 414.326 421.259 427.131 419.457 433.014 418.486 438.615 417.673 443.83 416.452 446.399 415.888 448.968 415.429 451.331 414.812L458.191 413.015C462.571 411.965 466.437 410.613 469.867 409.577 471.575 409.039 473.181 408.566 474.632 408.068L478.588 406.624 484.06 404.656 485.499 404.158C485.661 404.092 485.829 404.043 486 404.013L485.525 404.223 484.112 404.787 478.678 406.874 474.632 408.422C473.193 408.934 471.588 409.419 469.88 409.984 466.45 411.059 462.596 412.437 458.203 413.526L451.344 415.363C448.968 415.993 446.437 416.466 443.843 417.056 438.705 418.289 433.053 419.129 427.144 420.126 414.312 421.966 401.375 422.925 388.417 423 375.464 422.916 362.53 421.952 349.702 420.113 343.806 419.129 338.141 418.276 333.003 417.043 330.434 416.452 327.865 415.98 325.502 415.35L318.642 413.513C314.249 412.424 310.396 411.046 306.966 409.97 305.258 409.406 303.665 408.921 302.214 408.409L298.27 406.9 292.837 404.814 291.424 404.249C291.275 404.18 291.134 404.097 291 404Z" fill="#263238" fill-rule="evenodd"/><path d="M292 404.038C292 404.038 303.119 381.039 389 380.03 474.881 379.02 486 404.038 486 404.038 486 404.038 399.326 446.702 292 404.038Z" fill-rule="evenodd"/><path d="M370 223.051C369.903 223.06 369.804 223.06 369.707 223.051L368.854 223.141C368.09 223.218 366.97 223.243 365.531 223.409 361.473 223.805 357.445 224.476 353.475 225.418 332.946 230.142 314.838 242.231 302.551 259.418 296.615 267.676 292.121 276.89 289.26 286.664 288.814 288.045 288.573 289.145 288.356 289.874L288.114 290.719C288.091 290.816 288.057 290.91 288.012 291 287.996 290.903 287.996 290.803 288.012 290.706 288.012 290.476 288.114 290.194 288.191 289.849 288.369 289.107 288.56 287.994 288.967 286.587 290.03 282.613 291.391 278.725 293.041 274.959 298.482 262.443 306.768 251.381 317.23 242.661 327.737 234.006 340.115 227.943 353.373 224.957 357.366 224.045 361.422 223.443 365.506 223.154 366.957 223.026 368.052 223.038 368.842 223L369.707 223C369.911 223.026 370 223.038 370 223.051Z" fill="#FFFFFF" fill-rule="evenodd"/><path d="M289.98 322C289.358 321.194 288.876 320.317 288.552 319.397 286.71 315.048 285.852 310.449 286.021 305.837 285.976 304.879 286.113 303.921 286.425 303 286.673 303 286.331 307.347 287.325 312.604 288.319 317.862 290.213 321.922 289.98 322Z" fill="#FFFFFF" fill-rule="evenodd"/><path d="M267.963 315C267.963 315 267.653 314.793 267.235 314.3 266.639 313.601 266.128 312.84 265.712 312.031 262.763 306.542 263.683 299.868 268.017 295.308 268.637 294.626 269.338 294.016 270.106 293.493 270.37 293.279 270.672 293.113 270.996 293 271.077 293.104 269.864 293.895 268.394 295.593 264.458 300.126 263.587 306.433 266.156 311.798 267.1 313.859 268.057 314.922 267.963 315Z" fill="#FFFFFF" fill-rule="evenodd"/><path d="M385 181.569C383.983 181.456 382.957 181.434 381.937 181.504 377.54 181.893 374.288 185.801 374.674 190.232 374.734 190.913 374.879 191.583 375.106 192.227 375.458 193.189 375.894 194.117 376.409 195 376.409 195 376.149 194.842 375.784 194.422 375.283 193.813 374.887 193.125 374.61 192.385 372.9 188.165 374.908 183.347 379.092 181.623 379.972 181.262 380.908 181.056 381.858 181.017 382.639 180.962 383.423 181.038 384.179 181.241 384.765 181.333 385 181.53 385 181.569Z" fill="#FFFFFF" fill-rule="evenodd"/><path d="M497 299.99C496.857 300.165 494.839 297.99 491.793 296.355 488.747 294.72 485.974 294.238 486 294.004 488.122 293.944 490.22 294.52 492.079 295.669 494.036 296.587 495.736 298.079 497 299.99Z" fill="#FFFFFF" fill-rule="evenodd"/><path d="M321 524C320.942 523.923 320.891 523.843 320.848 523.757L320.428 523.001C320.046 522.272 319.538 521.299 318.877 520.057 318.546 519.417 318.19 518.7 317.783 517.932L316.588 515.371C315.723 513.515 314.757 511.402 313.803 508.97 313.32 507.779 312.812 506.524 312.278 505.231 311.744 503.938 311.286 502.53 310.764 501.109 309.671 498.28 308.743 495.169 307.662 491.942 305.666 485.413 303.708 478.18 301.991 470.498 300.275 462.816 299.028 455.404 298.011 448.657 296.994 441.91 296.333 435.854 295.926 430.656 295.684 428.096 295.532 425.766 295.405 423.717 295.278 421.669 295.163 419.876 295.125 418.468 295.087 417.06 295.049 415.972 295.011 415.152L295.011 414.295C294.997 414.197 294.997 414.097 295.011 414 295.026 414.097 295.026 414.197 295.011 414.295L295.087 415.152C295.087 415.959 295.227 417.073 295.316 418.455 295.405 419.838 295.532 421.656 295.71 423.692 295.888 425.727 296.053 428.057 296.333 430.618 296.791 435.739 297.604 441.833 298.558 448.541 299.512 455.25 300.898 462.624 302.576 470.306 304.254 477.988 306.225 485.208 308.171 491.725 309.251 494.951 310.154 498.049 311.222 500.879 311.731 502.312 312.214 503.682 312.697 505.001L314.172 508.765C315.088 511.159 316.029 513.284 316.868 515.166L318.012 517.727C318.381 518.508 318.737 519.225 319.055 519.878L320.479 522.873 320.835 523.654C320.912 523.758 320.968 523.875 321 524Z" fill="#FFFFFF" fill-rule="evenodd"/><path d="M367 565C366.485 564.991 365.972 564.929 365.471 564.815 364.088 564.567 362.722 564.232 361.38 563.813 359.387 563.201 357.44 562.447 355.551 561.558 353.251 560.439 351.041 559.143 348.938 557.68 346.859 556.182 344.901 554.519 343.083 552.708 341.61 551.219 340.247 549.624 339.006 547.934 338.155 546.807 337.383 545.621 336.693 544.386 336.41 543.953 336.178 543.488 336 543.002 336.104 542.936 337.202 544.848 339.385 547.644 340.668 549.269 342.051 550.811 343.528 552.26 347.145 555.806 351.296 558.753 355.826 560.991 357.676 561.893 359.579 562.681 361.524 563.352 364.87 564.486 367.026 564.868 367 565Z" fill="#FFFFFF" fill-rule="evenodd"/><path d="M386 504.829C385.71 504.879 385.417 504.91 385.123 504.917 384.289 504.988 383.452 505.014 382.615 504.993 379.498 504.924 376.406 504.417 373.427 503.485 371.369 502.837 369.366 502.022 367.435 501.051 365.223 499.901 363.123 498.538 361.168 496.983 351.957 489.828 347.04 478.38 348.156 466.69 348.361 464.194 348.802 461.724 349.473 459.313 350.073 457.221 350.849 455.187 351.792 453.229 353.152 450.39 354.898 447.757 356.981 445.408 357.54 444.766 358.134 444.157 358.761 443.583 358.968 443.373 359.191 443.179 359.426 443 359.426 443 358.598 443.9 357.169 445.535 355.164 447.92 353.478 450.562 352.155 453.394 350.183 457.566 349.01 462.077 348.695 466.69 347.663 478.168 352.481 489.389 361.481 496.463 363.379 498.008 365.42 499.366 367.573 500.519 369.461 501.525 371.427 502.373 373.452 503.054 376.387 504.016 379.434 504.583 382.515 504.74 384.784 504.829 386 504.753 386 504.829Z" fill="#FFFFFF" fill-rule="evenodd"/><path d="M421 276.5C421 276.769 405.104 277 385.506 277 365.909 277 350 276.769 350 276.5 350 276.231 365.896 276 385.506 276 405.117 276 421 276.192 421 276.5Z" fill="#FFFFFF" fill-rule="evenodd"/><path d="M360 356.597C359.81 356.648 359.614 356.678 359.416 356.682L357.715 356.828C356.979 356.889 356.078 356.937 355.025 356.962 353.971 356.986 352.778 357.034 351.458 356.962 348.805 356.962 345.657 356.78 342.167 356.428 338.389 356.008 334.64 355.387 330.934 354.571 327.237 353.722 323.592 352.677 320.018 351.44 317.106 350.42 314.251 349.257 311.463 347.956 310.194 347.422 309.217 346.864 308.29 346.391 307.364 345.918 306.577 345.493 305.942 345.177L304.482 344.328C304.31 344.235 304.147 344.126 304 344 304 344 304.203 344 304.546 344.219L306.069 344.959C306.716 345.299 307.516 345.699 308.455 346.172 309.394 346.646 310.461 347.131 311.666 347.641 314.053 348.709 316.959 349.85 320.234 350.978 327.351 353.418 334.734 355.079 342.243 355.93 345.695 356.318 348.83 356.537 351.458 356.597 352.727 356.67 353.996 356.597 355.025 356.597 356.053 356.597 356.966 356.597 357.703 356.597L359.403 356.597C359.601 356.566 359.802 356.566 360 356.597Z" fill="#FFFFFF" fill-rule="evenodd"/><path d="M463 415C462.905 415.06 462.801 415.104 462.692 415.134L461.769 415.462 458.203 416.676C456.651 417.211 454.753 417.83 452.509 418.45 450.264 419.069 447.738 419.871 444.877 420.551L440.414 421.669C438.862 422.045 437.221 422.361 435.54 422.738 432.18 423.503 428.538 424.11 424.716 424.803 408.068 427.549 391.15 428.531 374.272 427.73 370.425 427.499 366.692 427.317 363.255 426.941 361.536 426.771 359.869 426.649 358.279 426.443L353.7 425.847C350.776 425.519 348.159 425.021 345.863 424.633 343.568 424.244 341.58 423.88 339.976 423.527L336.283 422.75 335.321 422.531C335.209 422.514 335.101 422.481 335 422.434 335.116 422.426 335.231 422.426 335.346 422.434L336.308 422.592 340.028 423.26C341.644 423.564 343.619 423.916 345.927 424.244 348.236 424.572 350.84 425.046 353.764 425.349L358.33 425.896C359.92 426.09 361.588 426.2 363.306 426.358 366.731 426.71 370.425 426.868 374.298 427.086 382.057 427.39 390.586 427.402 399.539 426.904 408.491 426.406 416.943 425.349 424.6 424.159 428.448 423.491 432.065 422.944 435.425 422.167 437.105 421.802 438.747 421.499 440.299 421.134L444.762 420.053C447.622 419.409 450.149 418.656 452.393 418.049 454.638 417.442 456.562 416.834 458.114 416.385L461.718 415.292 462.667 415.024Z" fill="#FFFFFF" fill-rule="evenodd"/></g></svg>