<svg width="756" height="756" xmlns="http://www.w3.org/2000/svg" xmlns:xlink="http://www.w3.org/1999/xlink" overflow="hidden"><defs><clipPath id="clip0"><rect x="0" y="0" width="756" height="756"/></clipPath></defs><g clip-path="url(#clip0)"><rect x="0" y="0" width="756" height="756" fill="#181D2A" fill-opacity="0"/><path d="M293.684 200.719 281.806 178.874C319.178 143.143 300.312 96.3275 239.667 74.3087 179.022 52.2896 99.5649 63.4055 62.1936 99.1367 24.8218 134.868 43.6883 181.683 104.333 203.702 150.054 220.303 208.448 218.474 250.925 199.112L250.925 199.112Z" fill="#FAFAFA" fill-rule="evenodd" fill-opacity="0"/><text font-family="Futura Bk,Futura Bk_MSFontService,sans-serif" font-weight="400" font-size="43" transform="translate(124.153 154)">Hello</text><path d="M293.392 200.224 290.702 200.224 282.568 199.977 250.544 198.934C250.349 198.934 250.192 198.841 250.192 198.725 250.192 198.719 250.192 198.712 250.192 198.706 250.179 198.668 250.179 198.63 250.192 198.592L250.192 198.592 250.704 198.896C228.451 209.192 201.089 214.852 172.855 215 165.724 214.977 158.605 214.642 151.559 213.995 118.816 210.96 89.3244 200.538 69.2576 184.916 58.0815 176.12 50.2092 166.012 46.1685 155.268 41.7775 143.844 41.9525 131.971 46.6809 120.594 47.2894 119.152 47.9297 117.692 48.5702 116.25 49.2108 114.809 50.2674 113.405 51.1001 111.982 51.9117 110.544 52.8521 109.131 53.9183 107.752 55.007 106.387 56.1279 105.021 57.1205 103.636 58.2225 102.251 59.4852 100.915 60.8995 99.6338L64.9664 95.6884 69.6419 91.8946 72.0117 89.9978C72.8123 89.3908 73.7409 88.8407 74.6056 88.2527 88.4543 78.8214 106.022 71.5626 125.748 67.1217 144.526 62.8836 164.691 61.2421 184.703 62.3228 203.508 63.4302 221.669 66.9793 237.895 72.7174 266.729 82.8613 287.762 99.2579 296.53 118.432 298.384 122.54 299.71 126.725 300.501 130.951 301.014 134.902 301.132 138.866 300.853 142.825 299.627 155.441 293.088 167.674 281.831 178.41L281.831 178.239C285.61 185.371 288.492 190.872 290.478 194.628 291.438 196.525 292.143 197.834 292.655 198.801L293.36 200.205C293.36 200.205 293.04 199.692 292.495 198.744L290.157 194.552C288.108 190.758 285.066 185.409 281.159 178.372 281.124 178.317 281.124 178.256 281.159 178.201 292.204 167.49 298.573 155.32 299.7 142.787 299.947 138.864 299.797 134.938 299.252 131.027 298.452 126.836 297.113 122.69 295.249 118.621 281.191 88.409 237.219 66.4255 184.575 63.2901 164.815 62.219 144.902 63.8343 126.356 68.0133 106.93 72.4163 89.6308 79.5818 75.9825 88.8787 75.1501 89.4666 74.2213 89.9978 73.4206 90.6047L71.0829 92.5016 66.4715 96.1625 62.5006 100.07C61.0916 101.346 59.8292 102.676 58.7219 104.053 57.6329 105.4 56.5443 106.766 55.5194 108.113 54.4747 109.473 53.5553 110.867 52.7653 112.286 51.9328 113.689 50.94 115.074 50.2354 116.497 49.5311 117.919 48.9866 119.361 48.3781 120.784 43.7346 131.984 43.5374 143.673 47.8016 154.927 59.156 185.168 100.522 208.242 152.167 213.141 159.15 213.79 166.203 214.139 173.271 214.184 179.868 214.167 186.453 213.845 192.965 213.217 213.948 211.193 233.754 206.115 250.608 198.441 250.743 198.357 250.964 198.353 251.104 198.433 251.111 198.435 251.117 198.437 251.12 198.441 251.217 198.52 251.217 198.626 251.12 198.706L251.12 198.706 250.864 198.365 282.504 199.655 290.702 199.996Z" fill="#263238" fill-rule="evenodd"/><path d="M275 425.809 211.095 419.217 184.029 358 163 363.458C163 363.458 178.536 428.153 195.923 438.177 213.311 448.201 272.709 450 272.709 450Z" fill="#92E3A9" fill-rule="evenodd"/><path d="M306.568 417.54C318.227 427.903 319.278 445.755 308.916 457.414 298.553 469.074 280.701 470.125 269.041 459.762 257.382 449.4 256.331 431.547 266.693 419.888 277.056 408.229 294.908 407.177 306.568 417.54Z" fill="#263238" fill-rule="evenodd"/><path d="M288 467C272.536 467 260 454.24 260 438.5 260 422.76 272.536 410 288 410 303.464 410 316 422.76 316 438.5 316 446.058 313.05 453.307 307.799 458.653 302.56 464.014 295.43 467.02 288 467ZM288 410.091C272.577 410.075 260.062 422.788 260.046 438.486 260.03 454.183 272.52 466.922 287.943 466.939 303.365 466.956 315.88 454.243 315.897 438.544 315.904 431.007 312.97 423.775 307.739 418.439 302.519 413.085 295.411 410.079 288 410.091Z" fill="#263238" fill-rule="evenodd"/><path d="M221.318 417.938C224.049 429.313 217.041 440.749 205.665 443.48 194.289 446.212 182.853 439.204 180.122 427.828 177.391 416.452 184.399 405.016 195.775 402.285 207.15 399.554 218.586 406.562 221.318 417.938Z" fill="#263238" fill-rule="evenodd"/><path d="M184.634 338.929C191.395 345.69 191.395 356.652 184.634 363.413 177.873 370.173 166.912 370.173 160.151 363.412 153.39 356.652 153.39 345.69 160.151 338.929 166.912 332.168 177.873 332.168 184.634 338.929Z" fill="#263238" fill-rule="evenodd"/><path d="M199.376 341.802 185.121 353.84 185.121 353.84 179.98 347.752 179.98 347.752 194.235 335.714C195.798 334.394 198.135 334.591 199.455 336.154L199.807 336.57C201.133 338.127 200.945 340.465 199.388 341.792 199.384 341.795 199.38 341.798 199.376 341.802Z" fill="#263238" fill-rule="evenodd"/><path d="M181 319.642 181 337.48C181 337.767 180.761 338 180.468 338L173.532 338C173.239 338 173 337.767 173 337.48L173 319.642C173 317.63 174.669 316 176.726 316L177.274 316C179.332 316 181 317.63 181 319.642Z" fill="#263238" fill-rule="evenodd"/><path d="M168.431 319.824 172.392 337.531C172.456 337.816 172.276 338.099 171.991 338.163L165.263 339.668C164.978 339.732 164.695 339.552 164.631 339.267L160.67 321.561C160.223 319.564 161.48 317.583 163.476 317.137L164.007 317.018C166.004 316.571 167.985 317.828 168.431 319.824Z" fill="#263238" fill-rule="evenodd"/><path d="M154.62 324.261 163.692 339.974C163.838 340.227 163.751 340.551 163.498 340.697L157.527 344.145C157.275 344.291 156.951 344.204 156.804 343.951L147.732 328.238C146.71 326.466 147.317 324.2 149.088 323.177L149.56 322.905C151.331 321.882 153.597 322.489 154.62 324.261Z" fill="#263238" fill-rule="evenodd"/><path d="M570.906 576.763 551.844 584.87 496.84 455.54 515.902 447.433Z" fill="#92E3A9" fill-rule="evenodd"/><path d="M515.341 419.984C527.243 430.067 528.717 447.889 518.634 459.791 508.551 471.693 490.729 473.168 478.827 463.085 466.925 453.002 465.45 435.18 475.533 423.278 485.616 411.376 503.439 409.901 515.341 419.984Z" fill="#263238" fill-rule="evenodd"/><path d="M497.038 470C481.56 470.008 469.007 457.242 469 441.487 468.999 438.636 469.416 435.802 470.241 433.077 474.813 418.043 490.493 409.628 505.262 414.282 520.031 418.937 528.297 434.897 523.725 449.931 520.103 461.845 509.289 469.976 497.038 470ZM497.038 413.039C481.609 413.054 469.117 425.798 469.132 441.503 469.147 457.207 481.666 469.924 497.095 469.909 509.34 469.896 520.15 461.767 523.76 449.855L523.76 449.855C528.288 434.854 520.029 418.956 505.301 414.319 502.596 413.465 499.78 413.034 496.948 413.039Z" fill="#263238" fill-rule="evenodd"/><path d="M539.533 499.901C550.804 503.034 557.403 514.711 554.271 525.983 551.138 537.255 539.461 543.853 528.189 540.721 516.917 537.588 510.319 525.911 513.451 514.639 516.583 503.367 528.26 496.769 539.533 499.901Z" fill="#263238" fill-rule="evenodd"/><path d="M583 586.5C583 596.165 575.165 604 565.5 604 555.835 604 548 596.165 548 586.5 548 576.835 555.835 569 565.5 569 575.165 569 583 576.835 583 586.5Z" fill="#263238" fill-rule="evenodd"/><path d="M543.159 603.68 552.853 587.774 552.853 587.774 559.657 591.921 559.657 591.921 549.963 607.827C548.898 609.574 546.619 610.127 544.872 609.063L544.407 608.779C542.655 607.723 542.094 605.445 543.151 603.693 543.153 603.69 543.156 603.684 543.159 603.68Z" fill="#263238" fill-rule="evenodd"/><path d="M567.295 618.851 561.55 601.64C561.458 601.363 561.608 601.063 561.885 600.971L568.425 598.788C568.701 598.695 569.002 598.845 569.094 599.122L574.839 616.332C575.464 618.28 574.389 620.366 572.441 620.99 572.441 620.99 572.441 620.99 572.441 620.99L571.925 621.163C570.01 621.777 567.955 620.75 567.295 618.851Z" fill="#263238" fill-rule="evenodd"/><path d="M579.465 614.727 570.101 599.186C569.95 598.936 570.031 598.61 570.281 598.459L576.187 594.901C576.437 594.75 576.762 594.831 576.913 595.081L586.277 610.622C587.333 612.374 586.768 614.651 585.016 615.707L584.549 615.988C582.797 617.044 580.52 616.479 579.465 614.727Z" fill="#263238" fill-rule="evenodd"/><path d="M591.154 606.157 577.573 594.125C577.355 593.932 577.334 593.597 577.528 593.378L582.09 588.229C582.283 588.011 582.619 587.99 582.837 588.184L596.418 600.216C597.949 601.573 598.09 603.914 596.734 605.445L596.373 605.853C595.015 607.374 592.68 607.51 591.154 606.157Z" fill="#263238" fill-rule="evenodd"/><path d="M279 409.363C279 409.363 281.048 607.086 392.68 610.946 504.313 614.806 509 410.78 509 409.363 509 409.363 495.818 379.887 394 381.033 292.182 382.178 279 409.363 279 409.363Z" fill="#92E3A9" fill-rule="evenodd"/><path d="M342.087 374C335.964 374 331 374 331 374L331 351C331 351 335.964 351 342.087 351L435.913 351C442.036 351 447 351 447 351L447 374C447 374 442.036 374 435.913 374Z" fill="#263238" fill-rule="evenodd"/><path d="M393 198 385 198 385 157 393 157Z" fill="#263238" fill-rule="evenodd"/><path d="M530.766 291.519C533.813 304.34 525.89 317.202 513.07 320.249 500.25 323.297 487.387 315.374 484.34 302.554 481.293 289.734 489.215 276.871 502.036 273.824 514.856 270.777 527.718 278.699 530.766 291.519Z" fill="#92E3A9" fill-rule="evenodd"/><path d="M289.975 290.154C292.89 303.005 284.835 315.786 271.984 318.7 259.134 321.615 246.353 313.561 243.438 300.71 240.523 287.859 248.578 275.079 261.429 272.164 274.279 269.249 287.06 277.304 289.975 290.154Z" fill="#92E3A9" fill-rule="evenodd"/><path d="M384.423 189.059C384.423 189.059 287.255 187.894 271.899 272.07 256.542 356.246 338.687 357.759 362.327 359.349 373.035 360.075 395.964 360.151 416.197 359.788 460.995 359.016 492.647 350.357 503.415 308.822 504.698 303.951 505.504 298.968 505.823 293.942 508.655 248.35 477.866 186.819 384.423 189.059Z" fill="#92E3A9" fill-rule="evenodd"/><path d="M454.589 316.833 313.29 318.996C298.483 319.253 286.266 307.647 286.005 293.074 286.004 293.056 286.004 293.04 286.004 293.022L286.004 293.022C285.751 278.44 297.557 266.417 312.373 266.168 312.385 266.168 312.399 266.168 312.411 266.168L453.709 264.004C468.509 263.739 480.724 275.331 480.994 289.896 480.994 289.923 480.996 289.952 480.996 289.978L480.996 289.978C481.257 304.551 469.464 316.575 454.657 316.831 454.634 316.833 454.611 316.833 454.589 316.833Z" fill="#263238" fill-rule="evenodd"/><path d="M342.838 290.14C341.933 294.746 337.466 297.744 332.86 296.839 328.255 295.934 325.255 291.466 326.162 286.861 327.067 282.257 331.531 279.257 336.135 280.161 340.741 281.064 343.742 285.531 342.84 290.136 342.838 290.137 342.838 290.139 342.838 290.14Z" fill="#FFFFFF" fill-rule="evenodd"/><path d="M440.842 288.126C439.944 292.732 435.481 295.739 430.874 294.842 426.267 293.942 423.261 289.481 424.159 284.875 425.056 280.268 429.518 277.261 434.125 278.158 434.13 278.16 434.134 278.16 434.138 278.161 438.739 279.065 441.738 283.524 440.842 288.126Z" fill="#FFFFFF" fill-rule="evenodd"/><path d="M426.898 488.303C425.371 509.508 407.165 525.444 386.233 523.896 365.303 522.349 349.575 503.902 351.102 482.697 352.63 461.494 370.831 445.559 391.76 447.103 412.689 448.656 428.419 467.098 426.898 488.303Z" fill="#263238" fill-rule="evenodd"/><path d="M416.924 487.043C415.795 502.466 402.378 514.054 386.956 512.924 371.534 511.796 359.946 498.379 361.076 482.956 362.204 467.535 375.621 455.948 391.043 457.076 391.043 457.076 391.045 457.076 391.045 457.076 406.459 458.196 418.046 471.601 416.925 487.015 416.925 487.025 416.924 487.034 416.924 487.043Z" fill="#FFFFFF" fill-rule="evenodd"/><path d="M403.24 492.193C403.029 490.659 402.944 489.111 402.986 487.562 402.912 484.662 402.852 480.516 402.852 475.414L403.15 475.976 388.97 467.549 389.76 467.549 375.446 475.733C375.059 476.401 375.968 474.837 375.879 475.004L375.879 475.004 375.879 477.16 375.879 479.332C375.879 480.759 375.879 482.186 375.804 483.583 375.804 486.377 375.7 489.08 375.655 491.692L375.267 490.994 389.283 499.709 388.657 499.709C393.026 497.31 396.634 495.397 399.095 494.091 400.419 493.324 401.799 492.664 403.225 492.117 402.112 493.04 400.914 493.848 399.646 494.531 397.231 496.05 393.682 498.191 389.209 500.818L388.896 501 388.583 500.818 374.388 492.39 374 492.163 374 491.677C374 489.065 374.03 486.362 374.09 483.568 374.09 482.171 374.09 480.759 374.09 479.317L374.09 477.16 374.09 475.065 374.09 475.065C374 475.232 374.91 473.683 374.522 474.336L388.881 466.228 389.298 466 389.686 466.243 403.687 474.959 404 475.156 404 475.521C403.836 480.774 403.672 484.996 403.523 487.865 403.562 489.314 403.466 490.763 403.24 492.193Z" fill="#92E3A9" fill-rule="evenodd"/><path d="M398.391 146.695C403.617 151.92 403.617 160.393 398.391 165.619 393.165 170.844 384.693 170.844 379.467 165.619 374.242 160.393 374.242 151.921 379.467 146.695 384.693 141.469 393.165 141.469 398.391 146.695Z" fill="#92E3A9" fill-rule="evenodd"/><path d="M368.016 286.002C368.634 286.079 368.325 289.073 370.149 293.172 371.183 295.524 372.687 297.618 374.56 299.313 376.757 301.331 379.491 302.6 382.398 302.952 385.32 303.148 388.232 302.421 390.751 300.864 392.883 299.57 394.728 297.816 396.162 295.721 398.662 292.082 398.883 289.027 399.5 289.073 399.75 289.073 400 289.84 400 291.284 399.944 293.339 399.441 295.355 398.53 297.179 397.159 299.935 395.134 302.278 392.647 303.981 386.298 308.653 377.641 307.827 372.207 302.031 370.061 299.887 368.48 297.201 367.619 294.231 367.006 292.251 366.846 290.147 367.149 288.09 367.399 286.662 367.781 285.956 368.016 286.002Z" fill="#FFFFFF" fill-rule="evenodd"/><path d="M497.009 325C496.867 325 498.498 322.311 500.073 317.606 502.031 311.444 503.271 305.052 503.762 298.575 504.329 292.121 504.473 285.632 504.187 279.156 504.088 276.661 503.975 274.675 503.861 273.181 503.765 272.458 503.742 271.727 503.79 271 503.972 271.704 504.091 272.424 504.145 273.151 504.344 274.54 504.542 276.557 504.712 279.126 505.158 285.654 505.085 292.209 504.5 298.724 504 305.263 502.679 311.702 500.57 317.875 499.901 319.736 499.096 321.539 498.158 323.267 497.823 323.878 497.438 324.458 497.009 325Z" fill="#263238" fill-rule="evenodd"/><path d="M271.902 269C271.812 269.742 271.647 270.474 271.409 271.184 271.201 271.871 270.978 272.71 270.771 273.718 270.564 274.726 270.246 275.825 270.054 277.093 269.495 280.035 269.124 283.008 268.939 285.995 268.724 289.649 268.778 293.312 269.099 296.958 269.454 300.598 270.072 304.21 270.947 307.769 271.678 310.679 272.594 313.545 273.687 316.35 274.117 317.556 274.611 318.61 275.009 319.557 275.407 320.503 275.789 321.297 276.108 321.939 276.471 322.598 276.769 323.289 277 324 276.546 323.394 276.153 322.751 275.821 322.076 275.37 321.313 274.961 320.528 274.595 319.725 274.148 318.809 273.607 317.755 273.145 316.549 271.963 313.751 270.983 310.879 270.214 307.952 269.282 304.359 268.632 300.705 268.27 297.019 267.945 293.336 267.913 289.636 268.175 285.949 268.396 282.936 268.833 279.942 269.481 276.986 269.72 275.719 270.054 274.604 270.325 273.611 270.596 272.619 270.851 271.779 271.09 271.092 271.302 270.374 271.573 269.675 271.902 269Z" fill="#263238" fill-rule="evenodd"/><path d="M279 409 279.573 409.167 281.263 409.744 287.689 412.023 292.335 413.695C294.039 414.272 295.925 414.819 297.931 415.442 301.959 416.642 306.499 418.207 311.658 419.423L319.698 421.504C322.504 422.218 325.461 422.75 328.508 423.419 334.542 424.816 341.164 425.774 348.118 426.898 363.156 428.976 378.313 430.067 393.492 430.164 408.672 430.075 423.829 428.984 438.867 426.898 445.776 425.774 452.353 424.831 458.477 423.419 461.494 422.765 464.511 422.233 467.286 421.519L475.342 419.438C480.486 418.222 485.026 416.657 489.054 415.457 491.06 414.834 492.946 414.287 494.65 413.71L499.296 412.039 505.722 409.76 507.412 409.182C507.602 409.106 507.799 409.05 508 409.015L507.442 409.258 505.783 409.912 499.402 412.327 494.65 414.12C492.961 414.713 491.075 415.275 489.069 415.928 485.041 417.174 480.516 418.769 475.357 420.03L467.302 422.158C464.511 422.887 461.539 423.434 458.492 424.117 452.458 425.546 445.821 426.518 438.882 427.673 423.813 429.803 408.619 430.913 393.402 431 378.191 430.903 363.002 429.786 347.937 427.658 341.013 426.518 334.361 425.53 328.327 424.102 325.31 423.419 322.293 422.872 319.517 422.142L311.462 420.015C306.303 418.754 301.778 417.159 297.75 415.913 295.744 415.26 293.873 414.698 292.169 414.105L287.538 412.358 281.157 409.942 279.498 409.289C279.323 409.208 279.157 409.112 279 409Z" fill="#263238" fill-rule="evenodd"/><path d="M279 409.511C279 409.511 292.182 382.232 394 381.035 495.818 379.838 509 409.511 509 409.511 509 409.511 406.242 460.112 279 409.511Z" fill-rule="evenodd"/><path d="M372 195.061C371.886 195.072 371.768 195.072 371.654 195.061L370.645 195.168C369.741 195.259 368.416 195.29 366.714 195.488 361.913 195.958 357.148 196.758 352.452 197.88 328.168 203.507 306.747 217.907 292.213 238.38 285.191 248.217 279.875 259.192 276.491 270.835 275.964 272.48 275.677 273.791 275.421 274.659L275.135 275.665C275.108 275.781 275.067 275.893 275.015 276 274.995 275.884 274.995 275.765 275.015 275.649 275.015 275.375 275.135 275.04 275.226 274.629 275.436 273.745 275.662 272.419 276.144 270.743 277.402 266.009 279.012 261.379 280.963 256.893 287.4 241.983 297.201 228.806 309.577 218.419 322.006 208.11 336.649 200.888 352.332 197.331 357.055 196.245 361.853 195.527 366.684 195.183 368.401 195.031 369.696 195.046 370.63 195L371.654 195C371.895 195.031 372 195.046 372 195.061Z" fill="#FFFFFF" fill-rule="evenodd"/><path d="M276.98 312C276.358 311.067 275.876 310.052 275.552 308.986 273.71 303.95 272.852 298.625 273.021 293.285 272.976 292.176 273.113 291.067 273.425 290 273.673 290 273.332 295.033 274.325 301.121 275.319 307.208 277.213 311.91 276.98 312Z" fill="#FFFFFF" fill-rule="evenodd"/><path d="M251.529 304C251.529 304 251.175 303.755 250.697 303.173 250.016 302.347 249.432 301.448 248.956 300.492 245.586 294.005 246.638 286.117 251.591 280.727 252.299 279.921 253.101 279.201 253.979 278.582 254.281 278.329 254.625 278.133 254.996 278 255.088 278.123 253.702 279.057 252.022 281.064 247.523 286.422 246.528 293.876 249.464 300.216 250.543 302.652 251.637 303.908 251.529 304Z" fill="#FFFFFF" fill-rule="evenodd"/><path d="M390 146.651C388.798 146.521 387.586 146.496 386.38 146.576 381.183 147.02 377.341 151.487 377.797 156.551 377.868 157.329 378.039 158.095 378.307 158.831 378.723 159.93 379.239 160.991 379.847 162 379.847 162 379.539 161.82 379.108 161.339 378.516 160.644 378.048 159.857 377.721 159.011 375.7 154.189 378.073 148.683 383.018 146.712 384.058 146.299 385.164 146.063 386.287 146.02 387.21 145.957 388.136 146.044 389.029 146.275 389.723 146.38 390 146.606 390 146.651Z" fill="#FFFFFF" fill-rule="evenodd"/><path d="M522 285.988C521.831 286.193 519.446 283.655 515.846 281.747 512.246 279.84 508.969 279.278 509 279.005 511.508 278.935 513.988 279.606 516.185 280.947 518.497 282.018 520.506 283.759 522 285.988Z" fill="#FFFFFF" fill-rule="evenodd"/><path d="M314 550C313.93 549.909 313.87 549.814 313.818 549.713L313.318 548.82C312.863 547.957 312.257 546.807 311.468 545.34 311.074 544.583 310.65 543.736 310.165 542.828L308.739 539.802C307.709 537.608 306.556 535.112 305.419 532.237 304.843 530.83 304.237 529.347 303.6 527.819 302.963 526.291 302.418 524.626 301.796 522.947 300.492 519.603 299.386 515.926 298.097 512.114 295.717 504.397 293.382 495.848 291.336 486.77 289.289 477.692 287.803 468.932 286.59 460.958 285.378 452.984 284.589 445.828 284.104 439.685 283.816 436.659 283.634 433.905 283.482 431.484 283.331 429.063 283.194 426.945 283.149 425.281 283.104 423.616 283.058 422.33 283.013 421.362L283.013 420.348C282.996 420.233 282.996 420.115 283.013 420 283.031 420.115 283.031 420.233 283.013 420.348L283.104 421.362C283.104 422.315 283.27 423.631 283.376 425.265 283.482 426.899 283.634 429.048 283.846 431.454 284.059 433.859 284.256 436.613 284.589 439.639 285.135 445.691 286.105 452.893 287.242 460.822 288.379 468.75 290.032 477.465 292.033 486.543 294.034 495.622 296.384 504.155 298.703 511.856 299.992 515.669 301.068 519.331 302.342 522.675 302.948 524.369 303.524 525.988 304.1 527.547L305.859 531.995C306.951 534.824 308.072 537.336 309.073 539.56L310.437 542.586C310.877 543.509 311.302 544.356 311.681 545.128L313.379 548.669 313.803 549.591C313.895 549.714 313.962 549.852 314 550Z" fill="#FFFFFF" fill-rule="evenodd"/><path d="M255 426.936C251.319 427.103 247.632 426.945 243.97 426.463 240.291 426.309 236.625 425.84 233 425.065 236.682 424.897 240.368 425.055 244.03 425.537 247.71 425.691 251.376 426.158 255 426.936Z" fill="#FFFFFF" fill-rule="evenodd"/><path d="M198 395C195.818 391.867 193.86 388.589 192.138 385.19 190.188 381.914 188.471 378.51 187 375 189.175 378.139 191.129 381.422 192.846 384.826 194.807 388.092 196.529 391.493 198 395Z" fill="#FFFFFF" fill-rule="evenodd"/><path d="M368 598C367.402 597.989 366.807 597.919 366.224 597.79 364.618 597.508 363.032 597.128 361.474 596.651 359.159 595.956 356.898 595.098 354.705 594.088 352.034 592.817 349.467 591.344 347.025 589.682 344.611 587.98 342.337 586.09 340.226 584.032 338.515 582.34 336.933 580.527 335.491 578.607 334.503 577.326 333.606 575.978 332.804 574.575 332.477 574.082 332.206 573.555 332 573.002 332.121 572.927 333.396 575.1 335.931 578.277 337.421 580.124 339.027 581.876 340.742 583.523 344.943 587.553 349.763 590.901 355.023 593.444 357.173 594.469 359.382 595.365 361.641 596.127 365.526 597.415 368.03 597.85 368 598Z" fill="#FFFFFF" fill-rule="evenodd"/><path d="M391 527.795C390.65 527.856 390.294 527.892 389.938 527.901 388.929 527.986 387.915 528.016 386.903 527.992 383.129 527.909 379.386 527.304 375.78 526.192 373.289 525.419 370.864 524.446 368.527 523.287 365.849 521.913 363.307 520.287 360.94 518.431 349.79 509.891 343.837 496.227 345.189 482.275 345.437 479.296 345.971 476.347 346.783 473.47 347.51 470.974 348.449 468.546 349.59 466.208 351.236 462.82 353.35 459.678 355.872 456.874 356.549 456.107 357.268 455.381 358.027 454.696 358.277 454.445 358.547 454.213 358.831 454 358.831 454 357.83 455.074 356.1 457.026 353.672 459.873 351.631 463.025 350.03 466.405 347.643 471.385 346.223 476.769 345.842 482.275 344.592 495.975 350.424 509.368 361.319 517.811 363.617 519.655 366.087 521.275 368.694 522.652 370.979 523.853 373.359 524.865 375.811 525.677 379.363 526.826 383.052 527.502 386.782 527.689 389.528 527.795 391 527.705 391 527.795Z" fill="#FFFFFF" fill-rule="evenodd"/><path d="M208 409.068C208 409.194 206.816 408.612 204.925 408.155 199.799 407.006 194.441 408.322 190.383 411.729 188.845 413.036 188.108 414.075 188 413.996 188.422 412.954 189.074 412.026 189.906 411.288 193.963 407.477 199.655 406.084 204.956 407.604 206.067 407.845 207.109 408.347 208 409.068Z" fill="#FFFFFF" fill-rule="evenodd"/><path d="M431 258.5C431 258.769 412.418 259 389.508 259 366.597 259 348 258.769 348 258.5 348 258.231 366.582 258 389.508 258 412.433 258 431 258.192 431 258.5Z" fill="#FFFFFF" fill-rule="evenodd"/><path d="M361 353.505C360.772 353.567 360.538 353.603 360.301 353.609L358.267 353.789C357.386 353.863 356.308 353.923 355.047 353.953 353.787 353.983 352.359 354.042 350.78 353.953 347.606 353.953 343.84 353.729 339.664 353.296 335.145 352.779 330.659 352.015 326.224 351.01 321.801 349.966 317.441 348.68 313.165 347.156 309.681 345.902 306.264 344.471 302.929 342.87 301.411 342.212 300.241 341.525 299.133 340.943 298.024 340.36 297.083 339.837 296.323 339.449L294.577 338.403C294.371 338.29 294.176 338.155 294 338 294 338 294.243 338 294.653 338.269L296.475 339.18C297.25 339.598 298.206 340.091 299.33 340.674 300.454 341.256 301.73 341.854 303.172 342.481 306.027 343.796 309.505 345.2 313.423 346.589 321.938 349.591 330.771 351.636 339.755 352.683 343.886 353.161 347.636 353.43 350.78 353.505 352.299 353.594 353.817 353.505 355.047 353.505 356.277 353.505 357.371 353.505 358.251 353.505L360.286 353.505C360.523 353.466 360.763 353.466 361 353.505Z" fill="#FFFFFF" fill-rule="evenodd"/><path d="M481 421C480.888 421.078 480.766 421.137 480.637 421.175L479.548 421.604 475.341 423.192C473.511 423.891 471.271 424.701 468.624 425.511 465.976 426.321 462.995 427.37 459.621 428.259L454.356 429.721C452.525 430.213 450.588 430.626 448.606 431.118 444.642 432.119 440.345 432.914 435.836 433.819 416.197 437.41 396.239 438.694 376.329 437.647 371.79 437.345 367.387 437.107 363.332 436.615 361.305 436.392 359.338 436.233 357.461 435.963L352.06 435.185C348.61 434.756 345.524 434.105 342.815 433.597 340.107 433.088 337.762 432.612 335.871 432.151L331.513 431.134 330.378 430.849C330.247 430.826 330.119 430.783 330 430.721 330.136 430.71 330.272 430.71 330.409 430.721L331.543 430.928 335.931 431.801C337.837 432.199 340.168 432.659 342.891 433.088 345.614 433.517 348.686 434.137 352.136 434.534L357.522 435.249C359.398 435.503 361.365 435.646 363.393 435.852 367.432 436.313 371.79 436.519 376.359 436.805 385.513 437.202 395.575 437.218 406.136 436.567 416.696 435.916 426.667 434.534 435.7 432.977 440.239 432.103 444.506 431.389 448.47 430.372 450.452 429.895 452.389 429.498 454.219 429.022L459.485 427.608C462.859 426.766 465.84 425.781 468.487 424.987 471.135 424.193 473.405 423.399 475.235 422.811L479.487 421.381 480.607 421.032Z" fill="#FFFFFF" fill-rule="evenodd"/></g></svg>